<svg t="1613994755027" class="icon" viewBox="0 0 1024 1024" version="1.1" xmlns="http://www.w3.org/2000/svg" p-id="1598" width="128" height="128"><path d="M315.4432 889.08288c-23.87968 3.18464-46.4896-20.89984-46.4896-20.89984l-106.69568-106.7008s-23.99232-26.26048-25.58464-49.30048c-2.4832-35.9168 23.3984-57.088 23.3984-57.088l190.208-190.21824s21.78048-21.27872 41.12384-29.39392c23.11168-9.69216 41.35936-11.05408 41.35936-11.05408l37.05856-0.3328s18.7392-0.9472 39.8336 6.08256c20.60288 6.8608 42.33728 31.51872 42.33728 31.51872l19.61984 19.6096 49.58208-49.5872-24.81152-24.8064s-19.0976-21.87264-50.20672-37.57568c-24.59648-12.416-58.88-11.84768-58.88-11.84768H433.21344s-36.03968-0.44544-65.66912 14.2336C334.1568 388.25472 298.8032 424.6272 298.8032 424.6272L114.21184 609.2288s-20.96128 18.40128-35.3536 50.99008c-10.89536 24.66816-12.97408 68.352-1.44384 97.7664 12.2368 31.22176 31.49312 49.98656 31.49312 49.98656l117.62176 117.62176s44.85632 47.58016 103.72608 37.19168c38.52288-6.79936 70.05184-37.504 70.05184-37.504l122.61376-122.60864-2.49344-97.96096-153.50272 153.49248c0-0.00512-21.7344 26.92096-51.4816 30.87872z" p-id="1599"></path><path d="M798.12096 98.67776s-44.8512-47.58016-103.72096-37.19168c-38.528 6.79936-70.05696 37.504-70.05696 37.504L501.70368 221.60384l2.49856 97.96608 153.5232-153.4976s21.7344-26.92096 51.4816-30.88896c23.87968-3.17952 46.4896 20.90496 46.4896 20.90496l106.69568 106.69568s23.99744 26.25536 25.58464 49.29536c2.47808 35.92192-23.3984 57.09312-23.3984 57.09312l-190.208 190.21824s-21.78048 21.28384-41.11872 29.39392c-23.1168 9.69728-41.35936 11.05408-41.35936 11.05408l-37.0688 0.32768s-18.74432 0.95232-39.84896-6.08256c-20.59264-6.8608-42.32192-31.5136-42.32192-31.5136l-19.6096-19.61984-49.58208 49.59744 24.8064 24.81152s19.10272 21.86752 50.2016 37.57568c24.58112 12.41088 58.87488 11.84256 58.87488 11.84256l54.09792 0.00512s36.03968 0.44032 65.66912-14.2336c33.3824-16.5376 68.736-52.90496 68.736-52.90496l184.59648-184.60672s20.96128-18.39104 35.3536-50.98496c10.89536-24.66816 12.97408-68.352 1.44384-97.7664-12.24192-31.21664-31.49312-49.98144-31.49312-49.98144l-117.62688-117.62688z" p-id="1600"></path></svg>